<svg xmlns="http://www.w3.org/2000/svg" viewBox="0 0 200 200" fill="none">
  <rect width="200" height="200" rx="20" fill="#fff7ed"/>
  <!-- Central share button -->
  <circle cx="100" cy="100" r="35" fill="url(#shareGrad)"/>
  <defs>
    <linearGradient id="shareGrad" x1="0%" y1="0%" x2="100%" y2="100%">
      <stop offset="0%" style="stop-color:#f97316"/>
      <stop offset="100%" style="stop-color:#ef4444"/>
    </linearGradient>
  </defs>
  <!-- Share icon -->
  <circle cx="85" cy="95" r="6" fill="white"/>
  <circle cx="115" cy="85" r="6" fill="white"/>
  <circle cx="115" cy="115" r="6" fill="white"/>
  <line x1="90" y1="93" x2="109" y2="87" stroke="white" stroke-width="2"/>
  <line x1="90" y1="97" x2="109" y2="113" stroke="white" stroke-width="2"/>
  <!-- Connected nodes -->
  <circle cx="40" cy="60" r="15" fill="#3b82f6" opacity="0.8"/>
  <text x="40" y="65" text-anchor="middle" font-size="14" fill="white">📧</text>
  <circle cx="160" cy="50" r="15" fill="#22c55e" opacity="0.8"/>
  <text x="160" y="55" text-anchor="middle" font-size="14" fill="white">💬</text>
  <circle cx="50" cy="150" r="15" fill="#8b5cf6" opacity="0.8"/>
  <text x="50" y="155" text-anchor="middle" font-size="14" fill="white">📱</text>
  <circle cx="160" cy="140" r="15" fill="#f59e0b" opacity="0.8"/>
  <text x="160" y="145" text-anchor="middle" font-size="14" fill="white">🔗</text>
  <!-- Connection lines -->
  <line x1="70" y1="80" x2="55" y2="65" stroke="#cbd5e1" stroke-width="2" stroke-dasharray="4"/>
  <line x1="130" y1="80" x2="145" y2="60" stroke="#cbd5e1" stroke-width="2" stroke-dasharray="4"/>
  <line x1="75" y1="120" x2="60" y2="140" stroke="#cbd5e1" stroke-width="2" stroke-dasharray="4"/>
  <line x1="125" y1="120" x2="145" y2="130" stroke="#cbd5e1" stroke-width="2" stroke-dasharray="4"/>
</svg>